<?xml version="1.0" standalone="no"?>
<!DOCTYPE svg PUBLIC "-//W3C//DTD SVG 20010904//EN"
 "http://www.w3.org/TR/2001/REC-SVG-20010904/DTD/svg10.dtd">
<svg version="1.0" xmlns="http://www.w3.org/2000/svg"
 width="846.000000pt" height="846.000000pt" viewBox="0 0 846.000000 846.000000"
 preserveAspectRatio="xMidYMid meet">
<metadata>
Created by potrace 1.11, written by Peter Selinger 2001-2013
</metadata>
<g transform="translate(0.000000,846.000000) scale(0.100000,-0.100000)"
fill="#000000" stroke="none">
<path d="M2197 8454 c-3 -4 -41 -7 -84 -8 -43 -1 -84 -5 -90 -9 -7 -5 -13 -4
-13 0 0 5 -9 9 -20 9 -11 0 -20 -3 -20 -7 0 -3 -14 -6 -31 -7 -17 0 -36 -6
-44 -12 -9 -8 -15 -8 -20 0 -4 6 -12 7 -24 1 -10 -6 -31 -12 -47 -15 -16 -2
-31 -5 -34 -6 -3 -1 -8 -2 -12 -1 -5 0 -8 -3 -8 -8 0 -4 -11 -7 -25 -6 -14 2
-25 -1 -25 -6 0 -6 -4 -7 -10 -4 -5 3 -10 0 -10 -7 0 -9 -3 -9 -10 2 -6 9 -10
11 -10 3 0 -7 -7 -10 -15 -7 -8 4 -15 1 -15 -6 0 -6 -4 -8 -10 -5 -5 3 -10 1
-10 -5 0 -6 -4 -8 -10 -5 -5 3 -10 0 -10 -7 0 -10 -3 -9 -10 2 -8 12 -10 12
-16 -3 -3 -9 -10 -15 -15 -12 -9 6 -49 -14 -60 -29 -4 -5 -12 -5 -18 -2 -6 4
-11 2 -11 -3 0 -6 -5 -11 -11 -11 -5 0 -7 6 -4 13 4 6 -1 3 -9 -7 -9 -11 -16
-16 -16 -12 0 4 -7 0 -16 -9 -9 -9 -22 -14 -29 -11 -8 3 -16 -2 -19 -10 -3 -9
-10 -12 -16 -9 -5 3 -10 1 -10 -5 0 -6 -5 -8 -10 -5 -6 3 -13 -1 -16 -9 -3 -9
-10 -13 -15 -10 -5 3 -9 0 -9 -6 0 -6 -5 -8 -10 -5 -5 3 -10 1 -10 -5 0 -6 -5
-8 -10 -5 -5 3 -10 -1 -10 -10 0 -10 -5 -13 -11 -9 -7 4 -20 -4 -31 -17 -11
-13 -17 -18 -13 -10 5 9 -1 8 -19 -4 -14 -10 -26 -22 -26 -28 0 -6 -3 -7 -7
-4 -3 4 -12 -1 -20 -11 -10 -11 -12 -12 -8 -2 4 8 -3 4 -14 -9 -12 -13 -21
-20 -21 -16 0 5 -8 -1 -17 -12 -10 -10 -40 -36 -67 -56 -27 -20 -46 -37 -42
-37 3 0 -19 -22 -49 -50 -30 -27 -52 -50 -48 -51 5 0 0 -4 -10 -8 -10 -4 -17
-9 -15 -12 2 -4 -11 -18 -29 -33 -18 -15 -35 -36 -38 -47 -4 -10 -11 -17 -16
-14 -5 4 -9 0 -9 -7 0 -7 -14 -27 -30 -45 -17 -18 -30 -37 -30 -42 0 -6 -4
-11 -10 -11 -5 0 -10 -7 -10 -15 0 -9 -7 -18 -15 -21 -8 -4 -12 -10 -9 -15 3
-5 0 -9 -6 -9 -6 0 -8 -4 -5 -10 3 -5 -1 -10 -10 -10 -9 0 -13 -4 -10 -10 3
-5 1 -10 -5 -10 -6 0 -8 -5 -5 -10 3 -6 -1 -13 -9 -16 -9 -3 -13 -10 -10 -15
3 -5 1 -9 -5 -9 -5 0 -12 -13 -16 -30 -4 -16 -11 -30 -16 -30 -6 0 -7 -4 -4
-10 3 -5 2 -10 -3 -10 -8 0 -35 -45 -36 -62 -1 -3 -4 -10 -9 -14 -4 -4 -7 -16
-7 -26 0 -10 -5 -18 -11 -18 -5 0 -8 -4 -5 -9 3 -5 -1 -11 -9 -14 -8 -4 -12
-15 -10 -27 2 -11 0 -20 -6 -20 -5 0 -8 -3 -7 -7 1 -5 -4 -24 -11 -43 -8 -19
-13 -38 -12 -42 0 -5 -5 -8 -11 -8 -9 0 -8 -4 2 -10 8 -5 10 -10 4 -10 -6 0
-11 -10 -10 -22 1 -13 -4 -29 -11 -36 -7 -8 -11 -17 -8 -22 3 -5 1 -11 -5 -15
-6 -4 -8 -11 -5 -16 4 -5 0 -9 -7 -9 -9 0 -9 -3 2 -10 12 -8 12 -10 1 -10 -8
0 -11 -3 -8 -7 4 -3 2 -13 -5 -20 -9 -11 -9 -17 3 -24 8 -5 9 -9 4 -9 -6 0
-12 -12 -13 -26 -1 -15 -7 -33 -13 -40 -6 -8 -7 -14 -2 -14 5 0 9 -10 7 -22
-1 -13 -3 -23 -4 -23 -11 0 -14 -469 -17 -2887 -2 -2237 -1 -2798 9 -2799 63
-4 78 -3 78 3 0 4 14 3 30 -2 17 -5 30 -5 30 0 0 5 13 5 30 0 17 -5 30 -5 30
0 0 5 13 5 30 0 17 -5 30 -5 30 0 0 5 13 5 30 0 17 -5 30 -5 30 0 0 5 13 5 30
0 17 -5 30 -5 30 0 0 5 13 5 30 0 17 -5 30 -5 30 0 0 5 13 5 30 0 17 -5 30 -5
30 0 0 5 13 5 30 0 17 -5 30 -5 30 0 0 5 13 5 30 0 17 -5 30 -6 30 -2 0 4 26
6 57 4 146 -6 363 -6 363 0 0 4 14 3 30 -2 17 -5 30 -5 30 0 0 5 13 5 30 0 17
-5 30 -5 30 0 0 5 13 5 30 0 17 -5 30 -5 30 0 0 5 13 5 30 0 17 -5 30 -5 30 0
0 5 13 5 30 0 17 -5 30 -5 30 0 0 5 13 5 30 0 17 -5 30 -5 30 0 0 5 13 5 30 0
17 -5 30 -5 30 0 0 5 13 5 30 0 17 -5 30 -5 30 0 0 5 13 5 30 0 17 -5 30 -6
30 -2 0 4 26 6 57 4 146 -6 363 -6 363 0 0 4 14 3 30 -2 17 -5 30 -5 30 0 0 5
13 5 30 0 17 -5 30 -5 30 0 0 5 13 5 30 0 17 -5 30 -5 30 0 0 5 13 5 30 0 17
-5 30 -5 30 0 0 5 13 5 30 0 17 -5 30 -5 30 0 0 5 13 5 30 0 17 -5 30 -5 30 0
0 5 13 5 30 0 17 -5 30 -5 30 0 0 5 13 5 30 0 17 -5 30 -5 30 0 0 5 13 5 30 0
17 -5 30 -6 30 -2 0 4 26 6 57 4 146 -6 363 -6 363 0 0 4 14 3 30 -2 17 -5 30
-5 30 0 0 5 13 5 30 0 17 -5 30 -5 30 0 0 5 13 5 30 0 17 -5 30 -5 30 0 0 5
13 5 30 0 17 -5 30 -5 30 0 0 5 13 5 30 0 17 -5 30 -5 30 0 0 5 13 5 30 0 17
-5 30 -5 30 0 0 5 13 5 30 0 17 -5 30 -5 30 0 0 5 13 5 30 0 17 -5 30 -5 30 0
0 5 13 5 30 0 17 -5 30 -6 30 -2 0 4 26 6 57 4 146 -6 363 -6 363 0 0 4 14 3
30 -2 17 -5 30 -5 30 0 0 5 13 5 30 0 17 -5 30 -5 30 0 0 5 13 5 30 0 17 -5
30 -5 30 0 0 5 13 5 30 0 17 -5 30 -5 30 0 0 5 13 5 30 0 17 -5 30 -5 30 0 0
5 13 5 30 0 17 -5 30 -5 30 0 0 5 13 5 30 0 17 -5 30 -5 30 0 0 5 13 5 30 0
17 -5 30 -5 30 0 0 5 13 5 30 0 17 -5 30 -6 30 -2 0 4 51 6 112 4 289 -6 628
-6 628 0 0 4 14 3 30 -2 17 -5 30 -5 30 0 0 5 13 5 30 0 17 -5 30 -5 30 0 0 5
13 5 30 0 17 -5 30 -5 30 0 0 5 13 5 30 0 17 -5 30 -5 30 0 0 5 13 5 30 0 17
-5 30 -5 30 0 0 5 13 5 30 0 17 -5 30 -5 30 0 0 5 13 5 30 0 17 -5 30 -5 30 0
0 5 13 5 30 0 17 -5 30 -5 30 0 0 5 13 5 30 0 17 -5 30 -6 30 -2 0 4 26 6 57
4 32 -1 127 -3 211 -5 123 -2 152 1 152 12 0 10 3 11 13 2 10 -8 17 -7 25 1 9
9 12 9 12 0 0 -9 5 -10 19 -3 10 6 21 7 25 4 3 -3 6 -2 6 3 0 5 20 9 44 9 25
-1 42 3 39 8 -3 5 4 6 16 2 13 -4 21 -2 21 5 0 6 5 8 10 5 6 -4 17 -1 25 5 12
10 15 10 15 -1 0 -10 3 -10 12 -1 7 7 22 12 35 12 13 0 23 5 23 10 0 6 5 10
11 10 5 0 7 -5 3 -11 -3 -6 6 -3 22 7 15 11 29 18 31 17 9 -8 23 -2 18 7 -3 5
-2 10 4 10 5 0 12 -6 14 -12 4 -10 6 -10 6 0 1 6 10 12 22 12 11 0 27 7 36 15
8 8 19 13 24 10 5 -4 9 -1 9 5 0 6 8 10 18 8 10 -2 16 2 14 10 -1 8 2 11 7 8
5 -4 35 6 66 21 87 42 95 47 95 55 0 5 7 8 15 8 8 0 15 4 15 10 0 5 7 7 15 4
8 -4 17 1 21 9 3 9 12 13 20 10 8 -3 14 1 14 11 0 9 7 16 15 16 8 0 15 7 15
15 0 8 6 12 14 9 7 -3 16 2 20 11 3 9 10 13 16 10 5 -3 10 -1 10 5 0 6 5 8 10
5 6 -3 10 1 10 10 0 9 4 14 9 10 5 -3 19 7 30 21 12 15 21 23 21 18 0 -5 7 0
15 10 8 11 15 17 15 13 0 -4 8 1 18 11 11 9 17 20 15 24 -2 3 13 16 32 28 19
12 33 26 29 31 -3 5 2 9 10 9 9 0 16 4 16 9 0 5 25 33 55 62 30 29 55 58 55
64 0 6 9 17 20 25 11 8 20 20 20 27 0 7 5 13 11 13 5 0 7 5 4 10 -3 6 1 10 10
10 9 0 13 5 10 10 -3 5 -1 10 5 10 6 0 9 4 6 9 -3 5 1 12 10 15 9 4 14 13 10
22 -3 9 -2 12 5 9 6 -4 13 2 16 13 3 11 11 23 19 26 8 3 14 13 14 22 0 9 9 27
20 41 11 14 20 32 20 39 0 8 5 14 10 14 6 0 9 3 8 8 -1 4 3 17 10 28 6 12 8
24 5 28 -3 3 -1 6 6 6 7 0 9 5 6 10 -3 6 -1 10 4 10 6 0 10 3 9 7 -1 5 5 22
12 38 7 17 13 33 12 38 -1 4 2 7 8 7 6 0 9 3 9 8 -3 14 14 72 21 72 3 0 7 6 8
13 2 22 7 42 15 55 5 6 5 17 2 22 -3 5 -1 10 5 10 6 0 10 8 9 18 -3 31 1 43
11 37 5 -3 7 0 4 9 -3 8 0 24 6 36 9 17 9 21 0 15 -9 -6 -9 -3 -1 12 6 11 7
23 4 27 -3 3 -1 6 5 6 6 0 9 7 6 15 -4 8 -1 22 6 30 10 12 10 15 0 15 -9 0 -9
4 1 17 12 14 12 16 0 8 -10 -6 -12 -4 -6 6 5 7 11 31 14 54 3 22 6 1315 8
2873 l3 2832 -2978 0 c-1638 0 -2981 -3 -2985 -6z"/>
<path d="M395 682 c-6 -4 -11 -23 -10 -42 0 -19 -4 -41 -9 -47 -5 -9 -4 -13 4
-13 9 0 10 -3 1 -13 -8 -10 -7 -17 1 -25 9 -9 9 -12 1 -12 -8 0 -9 -9 -4 -28
5 -15 4 -37 0 -50 -5 -12 -4 -22 0 -22 11 0 9 -19 -2 -37 -5 -8 -3 -13 3 -13
7 0 7 -7 -1 -22 -9 -17 -9 -23 0 -26 6 -2 8 -9 4 -15 -10 -17 -11 -47 -1 -47
5 0 4 -9 -2 -20 -8 -14 -8 -20 0 -20 8 0 8 -6 0 -20 -6 -12 -7 -20 -1 -20 10
0 10 -19 -1 -35 -4 -6 -3 -17 2 -25 4 -7 4 -24 -1 -37 -6 -16 -5 -23 4 -23 8
0 8 -3 -2 -9 -11 -7 -11 -9 0 -14 11 -4 11 -6 1 -6 -11 -1 -11 -4 0 -15 11
-10 46 -13 149 -12 73 1 140 5 148 10 11 7 12 6 6 -5 -8 -12 -6 -12 8 0 13 10
17 10 17 1 0 -10 3 -10 15 0 12 10 15 10 15 0 0 -9 3 -10 13 -1 8 6 17 8 20 4
4 -3 7 -2 7 4 0 6 11 8 25 5 16 -3 25 0 25 9 0 7 3 9 6 6 4 -3 16 -1 28 5 11
7 24 11 29 10 4 -1 7 3 7 9 0 5 4 8 9 4 6 -3 15 4 21 15 6 11 15 18 20 15 5
-3 11 4 15 15 3 11 11 19 18 17 6 -1 12 3 12 8 1 6 12 28 25 50 14 21 26 47
27 57 6 36 8 43 18 50 6 5 6 8 -2 8 -12 0 -12 17 0 38 5 6 5 12 0 12 -4 0 -9
17 -11 38 -2 44 -20 92 -34 92 -5 0 -6 4 -3 10 3 5 1 15 -5 22 -5 7 -19 25
-31 41 -11 15 -27 27 -35 27 -8 0 -12 5 -9 10 3 6 -1 10 -9 10 -9 0 -16 4 -16
8 0 9 -70 38 -82 34 -4 -1 -8 3 -8 9 0 5 -4 8 -9 4 -5 -3 -13 0 -17 6 -4 8 -9
7 -15 -2 -5 -8 -9 -9 -9 -3 0 6 -16 10 -35 9 -19 0 -35 3 -35 7 0 5 -9 4 -20
-2 -14 -8 -20 -8 -20 0 0 6 -5 8 -12 3 -21 -12 -38 -12 -38 0 0 7 -5 5 -10 -3
-5 -8 -10 -10 -10 -3 0 12 -17 12 -35 1 -6 -4 -17 -3 -25 2 -9 5 -19 5 -26 -1
-8 -7 -14 -6 -19 1 -5 8 -11 8 -21 -1 -11 -9 -14 -9 -14 0 0 8 -5 9 -19 1 -12
-6 -21 -6 -23 0 -2 5 -8 6 -13 2z m169 -104 c-5 -9 -2 -9 9 1 13 10 17 10 17
1 0 -10 3 -10 15 0 8 7 15 8 15 3 0 -5 7 -10 15 -10 8 0 15 5 15 11 0 6 5 5
12 -2 8 -8 15 -9 25 -1 9 9 13 8 13 0 0 -7 5 -9 10 -6 6 3 10 0 11 -7 0 -9 2
-9 5 -1 4 8 16 5 42 -10 50 -29 72 -49 66 -59 -3 -4 2 -8 11 -8 9 0 14 -4 11
-9 -3 -5 0 -11 8 -14 9 -4 12 -14 9 -26 -3 -12 -1 -21 4 -21 14 0 16 -106 3
-131 -8 -14 -8 -19 -1 -15 7 5 9 1 5 -8 -3 -9 -11 -16 -16 -16 -5 0 -8 -6 -5
-12 7 -19 -94 -112 -105 -96 -6 11 -8 10 -8 0 0 -7 -4 -10 -10 -7 -5 3 -10 1
-10 -5 0 -6 -4 -9 -9 -5 -5 3 -13 0 -17 -6 -5 -8 -9 -8 -14 1 -5 8 -13 9 -21
4 -20 -12 -39 -14 -39 -3 0 6 -8 5 -20 -1 -14 -8 -20 -8 -20 0 0 6 -5 8 -10 5
-6 -3 -19 -4 -29 0 -18 5 -21 40 -6 64 3 6 1 11 -6 11 -8 0 -8 4 1 15 9 11 9
15 1 15 -9 0 -9 5 -1 20 8 15 8 20 -1 20 -9 0 -9 3 0 14 9 10 9 16 1 21 -7 5
-8 11 -1 19 6 7 6 17 1 26 -5 8 -6 19 -2 25 11 18 11 35 -1 35 -7 0 -5 5 3 10
9 6 10 10 3 10 -12 0 -10 30 2 50 3 6 1 10 -5 10 -8 0 -8 6 0 20 6 11 7 20 3
20 -4 0 -8 11 -8 24 0 13 3 22 7 20 4 -2 9 0 13 6 3 5 8 10 11 10 3 0 2 -6 -2
-12z"/>
<path d="M1200 677 c-24 -11 -38 -47 -19 -47 6 0 5 -9 -1 -20 -7 -14 -7 -20 0
-20 5 0 9 -3 9 -7 -4 -27 1 -35 16 -23 11 9 15 9 15 1 0 -8 5 -9 18 -2 11 6
24 6 32 1 9 -5 20 -4 29 3 8 7 17 12 20 12 3 0 6 6 7 13 1 6 -2 12 -7 12 -6 0
-5 8 1 20 8 15 8 20 -1 20 -8 0 -8 4 1 15 12 14 8 17 -16 14 -4 0 -10 5 -15
12 -5 9 -11 10 -21 2 -18 -15 -30 -17 -37 -5 -4 7 -15 6 -31 -1z"/>
<path d="M5028 679 c0 -8 -2 -18 -2 -24 -1 -5 -4 -15 -8 -20 -4 -6 -3 -17 2
-25 4 -7 6 -19 3 -25 -2 -7 7 -15 21 -17 14 -3 26 -2 26 1 0 11 54 7 62 -4 5
-6 8 -5 8 3 0 10 5 10 20 2 15 -8 20 -8 20 2 0 8 3 9 8 3 4 -5 16 -10 27 -10
24 1 38 -17 22 -27 -9 -6 -9 -8 1 -8 10 0 10 -5 2 -20 -7 -13 -7 -20 -1 -20 7
0 7 -9 1 -25 -7 -17 -6 -25 1 -25 8 0 7 -5 -1 -15 -10 -12 -10 -15 0 -15 9 0
9 -4 -1 -17 -12 -15 -12 -16 1 -8 13 8 13 7 1 -8 -10 -13 -10 -17 -1 -17 10 0
10 -3 0 -15 -10 -12 -10 -15 0 -15 9 0 9 -4 -1 -17 -11 -13 -11 -17 -1 -21 10
-3 10 -7 1 -18 -9 -11 -9 -14 1 -14 10 0 10 -3 0 -15 -9 -11 -9 -15 -1 -15 7
0 9 -5 6 -11 -12 -18 -12 -69 -1 -69 6 0 4 -5 -4 -10 -8 -5 -10 -10 -4 -10 12
0 12 -29 0 -48 -4 -7 -2 -12 6 -12 9 0 9 -3 -2 -10 -12 -8 -12 -10 -1 -10 11
0 11 -3 1 -15 -9 -11 -9 -15 -1 -15 7 0 9 -5 5 -12 -5 -7 -3 -8 5 -4 7 5 42 9
78 10 64 3 97 20 70 38 -9 6 -9 10 2 17 10 6 10 10 1 16 -9 6 -9 10 1 16 12 7
12 9 0 9 -11 0 -11 3 -1 15 10 12 10 15 0 15 -10 0 -10 3 0 15 10 12 10 15 0
15 -10 0 -10 3 0 15 10 12 10 15 0 15 -10 0 -10 3 0 15 9 11 9 15 1 15 -7 0
-9 5 -4 12 11 18 10 42 -2 51 -6 4 -5 10 4 16 10 6 10 10 1 16 -9 6 -9 10 1
16 12 7 12 9 0 9 -11 0 -11 3 -1 15 10 12 10 15 0 15 -10 0 -10 3 0 15 10 12
10 15 0 15 -10 0 -10 3 0 15 10 12 10 15 0 15 -10 0 -10 3 0 15 9 11 9 15 1
15 -9 0 -9 5 -1 20 8 14 8 20 0 20 -8 0 -8 6 0 20 8 15 8 20 -2 20 -9 0 -9 3
-1 11 12 12 145 15 162 4 6 -3 11 -2 11 3 0 5 12 7 27 4 21 -4 25 -2 20 11 -3
9 -2 19 3 22 7 4 6 13 0 25 -7 13 -7 21 1 25 6 5 4 12 -8 20 -13 9 -22 10 -30
3 -9 -7 -13 -7 -13 1 0 9 -5 9 -20 1 -15 -8 -20 -8 -20 1 0 8 -4 8 -15 -1 -11
-9 -15 -9 -15 -1 0 8 -5 9 -18 2 -10 -6 -24 -6 -32 -1 -8 5 -19 6 -25 2 -15
-10 -35 -11 -35 -3 0 9 -31 8 -48 -3 -7 -4 -12 -2 -12 4 0 8 -6 8 -20 0 -15
-8 -20 -8 -20 2 0 8 -3 9 -8 3 -11 -15 -32 -17 -32 -2 0 8 -4 7 -10 -3 -5 -8
-10 -10 -10 -3 0 12 -24 12 -36 0 -4 -3 -15 -2 -25 3 -10 6 -20 6 -23 1 -6 -9
-48 -7 -65 3 -5 4 -13 2 -16 -4 -5 -8 -11 -7 -21 1 -11 9 -14 8 -16 -2z"/>
<path d="M6281 668 c-5 -14 -5 -26 1 -29 6 -4 6 -9 -1 -14 -9 -5 -9 -10 0 -21
6 -8 7 -14 2 -14 -5 0 -10 -7 -10 -15 0 -8 4 -15 8 -15 9 0 6 -20 -4 -37 -5
-8 -3 -13 4 -13 8 0 8 -4 -1 -15 -8 -10 -9 -15 -1 -15 7 0 8 -8 1 -26 -7 -16
-7 -23 0 -19 7 4 7 -2 0 -19 -6 -17 -6 -26 3 -29 9 -3 9 -8 -2 -20 -10 -13
-10 -17 -1 -17 10 0 10 -3 0 -15 -10 -12 -10 -15 0 -15 9 0 10 -3 1 -13 -8
-10 -7 -17 1 -25 7 -7 8 -12 2 -12 -6 0 -11 -7 -11 -15 0 -8 4 -15 8 -15 9 0
6 -20 -4 -38 -5 -7 -3 -12 4 -12 8 0 8 -4 -1 -15 -8 -10 -9 -15 -1 -15 7 0 8
-8 1 -26 -7 -16 -7 -23 0 -19 7 4 7 -3 0 -19 -6 -17 -6 -26 0 -26 6 0 10 -5
10 -11 0 -5 -4 -8 -8 -5 -5 3 -8 -5 -7 -17 1 -18 9 -22 53 -24 34 -2 52 1 52
8 0 8 4 8 13 1 8 -7 18 -7 27 -2 11 7 12 10 2 10 -8 0 -10 5 -6 12 11 18 12
48 2 48 -5 0 -4 9 2 20 7 14 7 20 0 20 -5 0 -10 5 -10 11 0 5 4 8 8 5 5 -3 9
1 9 9 0 8 -4 15 -9 15 -5 0 -4 9 2 20 8 14 8 20 0 20 -8 0 -8 6 0 20 8 14 8
20 0 20 -8 0 -8 6 0 20 8 14 8 20 0 20 -8 0 -8 6 0 20 8 14 8 20 0 20 -8 0 -8
6 0 20 8 14 8 20 0 20 -8 0 -8 6 0 20 8 14 8 20 0 20 -8 0 -8 6 0 20 8 14 8
20 0 20 -8 0 -8 6 0 20 8 14 8 20 0 20 -8 0 -8 6 0 20 8 14 8 20 0 20 -8 0 -8
6 0 20 8 14 8 20 0 20 -8 0 -8 6 0 20 6 11 7 20 2 20 -5 0 -7 11 -4 25 2 14 9
25 16 25 6 0 4 4 -4 9 -8 6 -18 7 -22 5 -4 -3 -8 0 -8 6 0 6 -5 8 -12 3 -19
-11 -38 -13 -38 -2 0 5 -11 4 -26 -1 -32 -13 -37 -12 -29 0 3 6 4 10 0 10 -3
0 -9 -10 -14 -22z"/>
<path d="M7927 637 c-9 -6 -18 -26 -20 -42 -2 -17 -7 -37 -12 -45 -5 -9 -4
-15 3 -18 8 -2 8 -7 -1 -17 -8 -9 -18 -10 -29 -4 -11 6 -18 6 -18 0 0 -5 -8
-8 -17 -7 -15 1 -18 -8 -19 -47 -1 -30 2 -47 10 -46 6 1 23 1 38 0 27 -1 28
-2 27 -60 -1 -33 2 -64 6 -70 3 -6 1 -11 -5 -11 -8 0 -8 -6 0 -20 8 -14 8 -20
0 -20 -6 0 -9 -4 -6 -9 3 -5 6 -37 7 -71 2 -58 5 -66 38 -100 33 -34 42 -38
79 -36 24 1 45 -1 48 -6 3 -4 27 -8 55 -8 l49 0 0 54 c0 49 -2 54 -25 58 -14
3 -25 1 -25 -4 0 -5 -8 -4 -19 1 -10 6 -20 9 -22 7 -2 -2 -13 6 -24 17 -11 11
-13 16 -5 12 13 -8 13 -7 1 8 -13 16 -22 117 -11 117 3 0 3 27 0 60 -4 46 -2
62 10 72 20 17 50 19 50 4 0 -6 5 -4 10 4 7 11 10 11 10 2 0 -9 5 -10 17 -3
26 14 27 98 2 104 -11 3 -19 2 -19 -2 0 -4 -19 -5 -42 -2 -37 5 -41 9 -42 34
-1 15 2 27 7 27 4 0 3 9 -3 20 -6 12 -7 20 -1 20 5 0 7 9 4 20 -4 16 -8 18
-19 9 -11 -9 -14 -8 -14 1 0 9 -4 9 -12 2 -18 -15 -30 -15 -37 -3 -5 8 -12 7
-24 -2z"/>
<path d="M1622 518 c-7 -7 -12 -8 -12 -4 0 5 -7 3 -16 -5 -13 -10 -17 -10 -25
2 -6 10 -9 11 -9 1 0 -7 -4 -11 -9 -7 -5 3 -12 1 -16 -5 -3 -5 -14 -10 -23
-10 -10 0 -23 -9 -30 -20 -7 -12 -18 -18 -24 -14 -7 4 -8 3 -4 -4 4 -7 2 -12
-3 -12 -6 0 -10 -3 -9 -7 0 -5 -2 -16 -7 -26 -4 -9 -5 -31 -3 -47 3 -16 0 -32
-6 -34 -6 -3 -5 -5 2 -5 7 -1 10 -5 7 -11 -3 -5 -1 -10 4 -10 6 0 11 -6 11
-13 0 -10 33 -38 50 -43 12 -3 47 -16 62 -24 11 -6 18 -5 21 3 4 9 6 9 6 0 1
-8 14 -13 32 -13 17 0 40 -5 51 -11 16 -9 19 -8 12 3 -6 10 -5 11 8 1 8 -7 27
-14 41 -15 14 -1 23 -6 21 -10 -5 -7 10 -12 28 -9 3 0 5 -5 4 -12 -3 -17 -25
-54 -26 -43 0 6 -7 1 -15 -10 -10 -13 -14 -14 -15 -5 0 11 -3 11 -17 0 -15
-12 -16 -12 -8 1 6 12 5 13 -6 3 -7 -7 -21 -13 -30 -13 -10 0 -20 6 -22 13 -4
9 -6 9 -6 -1 -1 -8 -6 -10 -13 -5 -7 4 -22 9 -33 10 -11 2 -22 8 -23 13 -2 6
-9 7 -14 4 -6 -4 -8 -2 -5 3 4 6 0 16 -8 23 -9 7 -15 8 -15 2 0 -5 -9 -8 -20
-5 -11 3 -27 0 -35 -7 -12 -10 -15 -10 -15 0 0 9 -3 10 -13 1 -10 -8 -17 -7
-25 1 -9 9 -12 8 -12 -5 0 -28 2 -32 11 -29 5 1 8 -1 8 -5 -4 -23 2 -43 11
-38 6 3 10 1 10 -4 0 -6 9 -11 21 -11 13 0 18 -4 13 -12 -5 -8 -2 -9 9 -5 10
4 17 2 17 -4 0 -6 7 -9 15 -6 8 4 17 2 20 -3 3 -5 25 -8 48 -6 23 1 50 -1 60
-6 10 -5 26 -6 35 -3 9 4 37 8 60 10 24 1 47 8 52 15 6 10 9 9 13 -1 4 -11 6
-11 6 -1 1 7 5 11 10 8 5 -3 30 14 56 38 32 29 44 46 36 50 -8 5 -9 12 -2 20
11 13 9 50 -4 81 -12 27 -51 65 -68 65 -7 0 -19 6 -26 13 -11 10 -12 9 -6 -2
5 -9 0 -8 -18 3 -20 13 -26 14 -30 4 -4 -9 -6 -10 -6 -1 -1 7 -8 10 -16 7 -8
-4 -15 -1 -15 6 0 7 -7 10 -16 6 -8 -3 -24 -1 -35 4 -14 8 -19 7 -19 -2 0 -9
-3 -9 -10 2 -5 8 -10 11 -10 6 0 -5 -8 -2 -17 5 -15 12 -16 12 -8 -1 8 -13 5
-13 -15 1 -41 27 -47 46 -22 69 12 11 22 19 22 16 0 -2 14 -1 30 4 19 5 28 5
25 -1 -4 -5 -2 -9 4 -9 5 0 11 6 14 13 3 9 7 9 18 1 8 -6 22 -10 32 -9 9 2 15
0 13 -3 -2 -4 7 -17 20 -30 13 -12 24 -17 24 -11 0 9 3 9 14 0 11 -9 16 -9 21
-1 4 7 18 10 31 7 13 -2 24 0 24 5 0 5 5 6 10 3 6 -3 10 4 10 17 0 13 -9 29
-20 36 -12 7 -18 17 -15 21 2 5 -2 12 -11 15 -10 4 -13 2 -9 -7 4 -6 -1 -3 -9
7 -9 11 -16 16 -16 12 0 -5 -8 -2 -17 5 -14 12 -16 12 -9 -1 7 -13 6 -13 -6 0
-7 8 -25 14 -40 12 -16 -2 -28 1 -28 6 0 5 -7 9 -15 9 -8 0 -12 -4 -9 -9 8
-13 -10 -10 -25 5 -11 10 -12 9 -6 -3 7 -12 6 -13 -6 -3 -12 10 -18 10 -27 1z"/>
<path d="M2225 519 c-11 -4 -37 -10 -57 -14 -21 -3 -38 -10 -38 -16 0 -6 -4
-8 -8 -5 -5 3 -21 -4 -38 -15 -16 -10 -25 -19 -21 -19 4 0 -4 -11 -18 -24 -16
-15 -24 -30 -19 -37 4 -8 3 -9 -4 -5 -8 5 -12 0 -12 -13 0 -11 -4 -22 -9 -25
-14 -9 -14 -166 0 -166 7 0 9 -3 6 -6 -3 -4 -1 -16 5 -28 7 -11 11 -24 10 -28
-1 -5 3 -8 9 -8 5 0 7 -4 4 -10 -3 -5 -3 -10 2 -10 4 0 22 -14 40 -30 18 -17
39 -30 47 -30 9 0 16 -6 16 -12 0 -9 4 -8 10 2 5 8 10 10 10 4 0 -8 30 -11 93
-10 89 2 134 13 162 39 8 6 20 17 27 23 26 23 44 50 41 60 -2 6 3 17 12 24 8
7 15 18 15 24 0 6 -5 4 -10 -4 -8 -13 -10 -13 -10 1 0 12 -7 15 -25 11 -15 -2
-25 0 -25 7 0 7 -5 9 -12 4 -20 -12 -38 -12 -38 0 0 6 -8 0 -17 -13 -10 -14
-17 -27 -17 -30 1 -9 -24 -30 -35 -30 -6 0 -11 -5 -11 -11 0 -5 -4 -7 -10 -4
-5 3 -10 1 -10 -5 0 -7 -6 -8 -19 0 -14 7 -21 6 -24 -3 -3 -9 -9 -7 -24 6 -11
9 -23 17 -27 17 -14 0 -33 25 -28 38 2 6 -1 12 -8 12 -6 0 -8 5 -5 10 3 6 -1
13 -10 16 -13 6 -14 8 -3 15 10 7 10 9 0 9 -10 0 -10 5 -2 20 6 11 7 20 2 20
-5 0 -9 7 -9 15 0 8 4 12 9 9 4 -3 8 3 8 13 0 11 6 25 13 32 10 11 9 12 -2 6
-9 -5 -7 2 5 18 24 34 96 70 106 53 5 -7 8 -6 8 4 0 12 2 12 9 2 4 -7 17 -14
29 -15 13 -1 26 -12 33 -29 6 -15 15 -25 20 -22 5 3 6 -1 3 -9 -3 -8 -1 -18 5
-22 6 -3 11 0 11 7 0 9 3 9 10 -2 8 -12 10 -12 10 -1 0 8 3 11 6 8 4 -3 16 -2
27 4 13 8 17 8 13 0 -5 -7 2 -7 24 0 l30 11 -22 31 c-12 17 -16 27 -8 22 7 -4
5 4 -6 18 -10 15 -22 27 -26 27 -5 0 -8 7 -8 15 0 9 -6 12 -17 8 -11 -4 -14
-3 -9 5 5 8 0 12 -13 12 -11 0 -23 5 -26 11 -4 6 -13 8 -21 5 -7 -3 -16 -1
-19 4 -3 5 -12 7 -20 3 -8 -3 -15 0 -15 7 0 9 -4 9 -12 2 -18 -14 -30 -16 -37
-4 -3 5 -15 6 -26 1z"/>
<path d="M2801 518 c-14 -5 -30 -7 -37 -4 -7 3 -15 -3 -19 -12 -5 -14 -7 -14
-15 -2 -7 11 -10 12 -10 2 0 -7 -4 -10 -10 -7 -5 3 -10 1 -10 -6 0 -7 -3 -10
-6 -6 -8 7 -24 -5 -80 -62 -24 -24 -42 -46 -39 -49 2 -3 -1 -14 -7 -25 -14
-27 -16 -57 -6 -79 6 -12 5 -18 -3 -18 -8 0 -8 -4 1 -15 10 -12 10 -15 -1 -15
-10 0 -10 -3 -1 -12 7 -7 12 -22 12 -35 0 -13 5 -23 10 -23 6 0 10 -7 10 -15
0 -7 8 -19 18 -24 9 -6 13 -11 9 -11 -4 0 2 -10 15 -22 30 -29 114 -76 103
-57 -7 11 -6 12 6 3 16 -13 192 -14 205 -2 4 5 16 8 26 8 10 0 18 5 18 11 0 5
5 7 10 4 6 -3 10 -2 10 4 0 5 9 13 21 16 11 4 18 9 16 12 -3 2 9 18 25 34 17
16 27 29 22 29 -5 0 -3 4 4 8 7 5 13 24 15 43 2 19 6 40 11 47 4 7 2 12 -5 12
-8 0 -8 4 1 15 10 12 10 15 0 15 -10 0 -10 3 0 15 7 8 8 15 3 15 -5 0 -10 6
-11 13 -2 30 -13 62 -22 65 -6 2 -8 7 -6 10 2 4 -12 23 -31 42 -20 19 -32 28
-28 20 4 -8 -2 -6 -12 6 -20 23 -80 50 -90 40 -4 -3 -16 0 -29 8 -12 8 -25 12
-29 8 -9 -9 -29 -10 -35 -1 -3 4 -16 2 -29 -3z m59 -97 c0 9 3 10 8 4 4 -5 13
-11 19 -12 20 -4 63 -45 57 -55 -3 -4 0 -8 6 -8 6 0 8 -4 5 -10 -3 -5 -1 -10
5 -10 8 0 10 -21 7 -67 -4 -67 -27 -140 -40 -126 -4 3 -7 1 -7 -5 0 -7 -9 -12
-21 -12 -11 0 -18 -4 -15 -9 7 -11 -55 -9 -73 3 -10 6 -12 5 -7 -2 8 -14 4
-15 -18 -6 -9 3 -13 10 -10 15 3 5 0 9 -6 9 -6 0 -17 6 -23 13 -19 20 -40 60
-28 53 6 -4 4 6 -4 21 -9 17 -11 29 -5 31 6 2 10 8 10 13 0 6 -4 8 -8 5 -11
-7 -1 58 10 65 5 3 10 15 11 27 0 11 4 19 7 17 4 -2 14 5 23 16 15 17 36 24
60 20 4 0 7 4 7 10 0 8 5 8 15 -1 12 -10 15 -10 15 1z"/>
<path d="M3945 516 c-22 -4 -47 -11 -55 -14 -8 -3 -18 -4 -22 -4 -5 1 -8 -3
-8 -9 0 -5 -4 -8 -8 -5 -5 3 -23 -8 -41 -24 -18 -17 -37 -30 -42 -30 -6 0 -8
-4 -4 -9 3 -5 -2 -17 -11 -25 -8 -9 -12 -16 -7 -16 4 0 2 -4 -4 -8 -7 -5 -14
-20 -15 -35 -1 -15 -6 -27 -11 -27 -4 0 -4 -8 2 -17 5 -10 5 -26 0 -40 -5 -14
-5 -23 1 -23 12 0 9 -22 -5 -32 -6 -5 -6 -8 1 -8 6 0 14 -13 17 -29 6 -27 87
-126 87 -106 0 5 6 1 13 -9 7 -9 22 -18 35 -19 12 0 22 -4 22 -8 0 -3 12 -5
28 -4 15 1 38 -2 50 -7 13 -4 29 -5 35 -1 7 4 34 8 62 8 54 1 120 27 129 51 3
9 10 12 16 9 5 -3 10 -2 10 2 0 5 11 20 23 33 22 24 34 65 15 54 -4 -3 -8 -1
-8 4 0 5 -7 9 -15 9 -8 0 -11 -5 -8 -10 4 -6 -1 -8 -11 -4 -55 21 -65 19 -102
-20 -20 -21 -33 -31 -28 -23 6 12 4 12 -12 -1 -10 -9 -27 -15 -36 -14 -10 2
-18 -1 -18 -7 0 -7 -5 -7 -13 1 -10 8 -17 7 -25 -1 -9 -9 -12 -9 -12 0 0 7 -9
12 -20 12 -11 0 -20 4 -20 10 0 5 -3 9 -8 7 -4 -1 -19 9 -32 22 -14 13 -19 20
-11 16 9 -5 7 1 -4 19 -14 20 -14 26 -4 26 10 0 11 3 3 8 -9 5 -8 11 2 20 9 8
14 9 14 2 0 -8 6 -8 20 0 14 8 20 8 20 0 0 -8 6 -8 20 0 14 8 20 8 20 0 0 -6
4 -8 10 -5 20 12 50 14 50 2 0 -7 4 -6 10 3 5 8 10 10 10 3 0 -6 8 -10 18 -8
9 2 17 4 17 5 0 1 10 3 23 4 12 2 22 -2 22 -7 0 -5 7 -4 15 3 9 7 18 10 22 6
3 -3 0 -6 -7 -6 -7 0 -10 -3 -7 -6 4 -4 13 -1 22 6 11 9 15 9 15 1 0 -9 5 -9
20 -1 15 8 20 8 20 -1 0 -8 4 -9 13 0 8 6 16 9 19 6 3 -3 11 1 18 10 8 10 9
15 2 15 -6 0 -9 7 -6 15 4 8 1 22 -6 30 -10 12 -10 15 0 15 9 0 8 7 -4 25 -9
13 -16 31 -16 40 0 8 -4 15 -9 15 -5 0 -13 9 -16 20 -3 11 -13 20 -21 20 -8 0
-14 4 -14 8 0 8 -33 27 -55 31 -5 1 -18 10 -27 18 -14 12 -18 13 -18 3 0 -9
-5 -7 -16 6 -8 10 -13 14 -10 7 4 -7 -1 -11 -14 -10 -11 1 -20 5 -20 9 0 5 -9
4 -19 -2 -11 -5 -21 -6 -23 -2 -2 4 -21 3 -43 -2z m65 -88 c0 -9 4 -8 10 2 7
11 10 12 10 2 0 -8 5 -12 12 -10 7 3 22 -5 35 -16 27 -23 61 -72 42 -61 -9 6
-11 4 -6 -7 4 -11 -2 -17 -19 -21 -13 -2 -24 0 -24 5 0 5 -9 4 -20 -2 -13 -7
-20 -7 -20 -1 0 7 -9 7 -26 1 -30 -12 -37 -12 -31 -2 3 4 -6 7 -19 7 -13 0
-24 -2 -24 -5 0 -3 -9 -6 -20 -6 -11 0 -20 4 -20 9 0 5 -7 7 -15 3 -13 -4 -14
-2 -5 14 6 11 8 26 4 32 -4 6 -3 9 2 6 11 -7 35 17 26 26 -3 4 2 4 12 0 14 -5
17 -4 12 4 -4 7 0 13 11 14 10 0 23 2 30 2 6 1 15 5 19 9 11 11 24 8 24 -5z"/>
<path d="M4650 520 c-8 -5 -17 -7 -21 -4 -4 2 -9 -3 -13 -11 -3 -8 -11 -15
-19 -15 -16 0 -60 -44 -52 -52 3 -3 -1 -8 -9 -11 -11 -4 -13 -1 -9 10 5 11 3
14 -6 8 -10 -6 -11 -3 -2 14 9 16 9 21 -1 21 -10 0 -10 2 1 9 18 12 -18 24
-70 23 -50 -1 -62 -9 -56 -38 2 -13 1 -24 -2 -24 -6 0 -4 -135 3 -177 2 -13 0
-23 -4 -23 -4 0 -4 -18 0 -40 4 -22 4 -40 0 -40 -4 0 -4 -18 0 -40 4 -22 5
-40 1 -40 -3 0 -6 -20 -6 -44 0 -33 3 -43 15 -41 8 2 15 4 15 5 0 1 26 2 58 3
39 2 61 7 67 17 6 9 6 16 0 18 -6 2 -6 11 0 23 7 11 7 19 1 19 -10 0 -10 19 1
35 4 6 3 17 -2 25 -5 8 -5 22 1 32 6 12 6 18 0 18 -7 0 -7 9 -1 25 5 14 6 25
1 25 -13 0 -6 41 10 51 8 5 10 9 5 9 -5 0 -3 6 3 13 6 8 8 16 5 20 -3 3 4 8
15 12 12 3 21 11 21 16 0 6 5 7 10 4 6 -3 13 0 16 9 3 8 12 12 20 9 22 -8 79
18 62 28 -9 6 -9 9 -1 9 8 0 9 9 3 30 -6 20 -5 30 2 30 7 0 7 4 -1 13 -6 8 -7
17 -3 22 4 4 -3 3 -15 -4 -13 -6 -23 -7 -25 -1 -2 6 -9 6 -18 0z"/>
<path d="M5830 521 c0 -6 -18 -11 -45 -11 -25 0 -45 -5 -45 -11 0 -5 -5 -7
-10 -4 -6 4 -18 1 -27 -7 -9 -7 -18 -12 -20 -10 -5 4 -44 -28 -61 -50 -20 -25
-24 -61 -7 -54 8 3 15 1 15 -4 0 -6 5 -10 11 -10 5 0 7 6 3 13 -6 8 -3 8 9 -2
9 -7 24 -11 32 -7 8 3 15 1 15 -4 0 -6 8 -5 19 2 11 7 19 14 18 17 -1 4 8 16
21 29 12 12 22 17 22 11 0 -8 4 -8 13 0 8 6 29 10 49 9 19 -1 41 3 48 7 9 5
11 4 6 -3 -4 -7 -2 -12 3 -12 6 0 11 5 11 11 0 8 4 9 13 0 8 -6 18 -7 22 -3 5
4 5 2 2 -4 -3 -6 5 -17 18 -24 19 -10 22 -17 14 -31 -7 -14 -6 -19 3 -19 7 0
8 -3 3 -9 -6 -6 -41 -11 -80 -12 -38 -1 -74 -4 -80 -8 -17 -9 -35 -10 -35 -1
0 5 -16 2 -35 -6 -19 -8 -35 -11 -35 -8 0 4 -10 -1 -22 -12 -13 -12 -18 -13
-13 -4 8 13 7 13 -8 1 -9 -7 -17 -10 -17 -6 0 4 -11 -4 -24 -18 -13 -14 -27
-23 -31 -19 -4 4 -6 2 -4 -3 1 -6 -3 -23 -10 -39 -6 -16 -9 -31 -6 -34 2 -3 0
-11 -6 -19 -9 -10 -8 -13 1 -13 6 0 10 -6 7 -13 -2 -6 3 -18 12 -25 9 -8 10
-10 3 -7 -11 6 -11 3 -1 -13 7 -12 16 -19 20 -16 4 2 9 -5 12 -16 3 -14 14
-20 31 -20 14 0 26 -4 26 -8 0 -20 201 -14 208 6 2 7 7 10 11 8 10 -6 63 29
61 40 -1 5 3 10 9 12 6 2 11 -5 11 -16 0 -11 6 -23 13 -25 9 -4 9 -6 -1 -6
-11 -1 -11 -3 0 -14 8 -7 37 -12 73 -12 l60 0 -3 35 c-4 57 -5 60 -14 60 -5 0
-4 9 2 20 8 15 8 20 -1 20 -8 0 -8 4 1 15 10 12 10 15 0 15 -10 0 -10 3 0 15
9 11 9 15 1 15 -7 0 -9 5 -6 11 12 18 12 69 1 69 -6 0 -4 5 4 10 8 5 10 10 4
10 -12 0 -12 29 0 48 4 7 2 12 -5 12 -8 0 -8 4 1 15 8 10 9 15 2 15 -6 0 -9 6
-6 14 3 8 -4 20 -15 28 -12 8 -18 18 -14 21 3 4 -1 7 -11 7 -9 0 -14 5 -11 10
5 9 -15 15 -37 11 -5 0 -8 3 -8 8 0 5 -11 11 -25 13 -14 3 -25 1 -25 -5 0 -6
-7 -2 -16 9 -8 10 -13 14 -9 7 4 -9 -3 -11 -24 -8 -17 2 -35 6 -40 9 -5 4 -13
2 -16 -4 -5 -8 -11 -7 -21 1 -10 8 -14 8 -14 0z m78 -259 c10 9 16 10 19 2 2
-6 15 -9 30 -6 21 4 25 2 20 -12 -4 -9 -1 -16 6 -17 8 0 7 -2 -2 -6 -11 -5
-11 -7 0 -14 10 -6 10 -9 2 -9 -7 0 -10 -7 -7 -15 4 -8 1 -15 -5 -15 -6 0 -10
-3 -8 -7 4 -13 -43 -54 -53 -48 -6 4 -10 2 -10 -3 0 -5 -9 -12 -20 -15 -11 -3
-18 -1 -14 4 3 5 -6 5 -20 -1 -18 -7 -26 -6 -26 1 0 8 -5 7 -15 -1 -11 -9 -15
-9 -15 -1 0 7 -4 9 -10 6 -5 -3 -10 -1 -10 5 0 6 -4 9 -8 6 -12 -7 -32 34 -30
59 2 17 38 64 38 49 0 -3 7 1 15 10 8 8 24 13 35 11 11 -2 20 2 20 8 0 7 4 6
10 -3 7 -11 10 -11 10 -2 0 7 5 10 10 7 6 -3 10 0 11 7 0 10 2 11 6 0 4 -10 8
-10 21 0z"/>
<path d="M6794 518 c-3 -5 -10 -6 -15 -3 -5 4 -9 2 -9 -3 0 -5 -13 -7 -30 -4
-18 3 -30 0 -30 -7 0 -6 -3 -10 -7 -9 -13 3 -53 -13 -53 -22 0 -4 -8 -10 -18
-12 -10 -3 -35 -29 -56 -58 -20 -28 -33 -49 -27 -45 17 10 13 -6 -6 -27 -10
-11 -12 -18 -4 -18 9 0 9 -5 1 -20 -6 -12 -7 -20 -1 -20 10 0 9 -19 -2 -37 -5
-8 -3 -13 3 -13 6 0 8 -5 5 -10 -4 -6 0 -24 9 -40 9 -20 11 -28 3 -24 -7 3 -4
-1 7 -10 10 -8 16 -18 13 -23 -3 -4 1 -14 9 -21 8 -7 14 -10 14 -6 0 3 13 -8
29 -25 15 -16 31 -28 34 -25 3 3 16 0 29 -7 27 -16 238 -22 238 -7 0 5 8 7 19
3 12 -3 21 0 25 10 3 9 10 14 15 10 5 -3 17 5 26 17 8 13 19 23 23 23 4 0 6 3
4 7 -1 5 4 8 11 8 7 0 17 13 23 28 9 24 8 31 -5 39 -9 6 -25 7 -36 3 -12 -5
-29 -2 -41 5 -19 12 -24 11 -45 -13 -13 -15 -22 -31 -21 -36 2 -5 -4 -6 -13
-2 -9 3 -18 -1 -21 -9 -4 -8 -10 -12 -15 -9 -5 2 -17 0 -27 -5 -13 -7 -22 -7
-30 1 -9 9 -12 9 -12 1 0 -8 -8 -8 -30 0 -16 6 -30 15 -30 20 0 4 -4 5 -10 2
-5 -3 -10 -2 -10 3 0 6 -11 20 -24 33 -18 17 -22 28 -16 44 8 20 10 30 10 41
0 4 6 2 13 -5 10 -8 17 -7 25 1 9 9 12 9 12 0 0 -10 5 -10 20 -2 15 8 20 8 20
-1 0 -8 4 -8 15 1 11 9 15 9 15 1 0 -8 5 -9 18 -2 10 6 24 6 32 1 8 -5 19 -6
25 -2 15 10 35 11 35 3 0 -9 31 -8 48 3 7 4 12 2 12 -4 0 -8 6 -8 20 0 14 8
20 8 20 0 0 -8 6 -8 20 0 15 8 20 8 20 -1 0 -7 9 -2 20 11 11 13 17 26 13 29
-5 3 -8 20 -8 36 0 17 -7 36 -15 43 -13 12 -13 13 0 6 11 -6 10 -2 -3 13 -9
11 -15 22 -12 25 3 2 -15 23 -39 46 -24 22 -46 38 -50 35 -3 -4 -6 -1 -6 6 0
8 -7 11 -15 7 -8 -3 -15 -1 -15 3 0 5 -16 8 -35 7 -19 -1 -35 2 -35 7 0 5 -9
5 -20 2 -11 -3 -20 -2 -20 3 0 11 -29 11 -36 0z m21 -88 c-3 -5 -1 -10 4 -10
6 0 11 4 11 9 0 5 9 7 20 4 11 -3 20 -10 20 -15 0 -5 5 -6 10 -3 6 3 10 1 10
-5 0 -6 4 -9 9 -6 5 3 12 -1 15 -10 3 -8 11 -12 17 -8 7 4 9 3 5 -4 -3 -6 -2
-13 3 -17 10 -6 11 -44 1 -46 -34 -5 -50 -4 -50 3 0 5 -9 4 -19 -2 -14 -7 -20
-7 -23 2 -3 8 -9 8 -23 0 -13 -7 -26 -7 -37 -1 -10 5 -18 6 -18 1 0 -4 -9 -8
-20 -8 -11 0 -20 4 -20 9 0 5 -7 4 -15 -3 -16 -13 -20 -5 -16 29 2 8 -3 10
-11 6 -7 -4 2 6 20 24 40 37 69 54 82 46 5 -3 11 -1 15 5 3 5 8 10 11 10 3 0
2 -4 -1 -10z"/>
<path d="M7488 522 c-10 -2 -18 -7 -18 -12 0 -5 -7 -7 -15 -4 -8 4 -15 1 -15
-7 0 -7 -3 -10 -6 -6 -3 3 -19 -6 -35 -21 -41 -36 -54 -36 -54 1 0 28 -4 32
-37 38 -21 3 -38 2 -38 -3 0 -5 -7 -5 -17 0 -13 6 -23 4 -35 -9 -12 -12 -13
-19 -5 -23 7 -2 8 -5 2 -5 -10 -1 -11 -241 -1 -268 3 -7 1 -13 -4 -13 -5 0 -5
-13 0 -30 5 -17 5 -30 0 -30 -5 0 -5 -13 0 -30 5 -16 5 -30 1 -30 -5 0 -6 -11
-4 -24 5 -26 28 -42 38 -25 4 5 12 6 18 2 17 -11 87 -12 87 -1 0 5 4 7 8 4 4
-2 8 4 8 15 0 10 -4 19 -9 19 -5 0 -4 7 3 15 10 12 10 15 0 15 -10 0 -10 3 0
15 10 12 10 15 0 15 -10 0 -10 3 0 15 10 12 10 15 0 15 -10 0 -10 3 0 15 10
12 10 15 0 15 -10 0 -10 3 0 15 10 12 10 15 0 15 -10 0 -10 3 0 15 9 11 9 15
1 15 -8 0 -9 6 -2 18 6 11 6 24 0 34 -6 11 -5 21 5 31 8 8 12 17 9 21 -4 3 0
6 7 6 7 0 11 3 7 6 -8 8 12 26 46 42 34 14 97 16 97 2 0 -5 6 -10 13 -10 8 0
21 -18 30 -40 8 -22 12 -40 8 -40 -4 0 -7 -9 -7 -20 0 -11 4 -20 8 -20 5 0 4
-9 -2 -20 -8 -14 -8 -20 0 -20 8 0 8 -6 0 -20 -6 -12 -7 -20 -1 -20 10 0 9
-19 -2 -38 -5 -7 -3 -12 3 -12 8 0 7 -6 -1 -21 -8 -16 -8 -23 1 -29 8 -5 9
-10 2 -14 -8 -4 -8 -16 0 -36 8 -25 15 -30 37 -27 14 3 32 0 39 -6 8 -7 12 -5
12 7 0 18 16 22 22 4 3 -8 9 -8 22 -1 12 7 15 13 8 17 -8 5 -8 15 -2 32 7 17
7 23 0 19 -7 -4 -7 3 0 19 7 19 6 26 -3 26 -8 0 -7 4 3 10 8 5 10 10 4 10 -12
0 -12 29 0 48 4 7 2 12 -6 12 -9 0 -9 3 2 10 12 8 12 10 1 10 -11 0 -11 3 -1
15 10 12 10 15 0 15 -10 0 -10 3 0 15 9 11 9 15 1 15 -7 0 -9 5 -6 11 12 18
12 69 1 69 -6 0 -4 5 4 10 10 6 11 10 3 10 -7 0 -13 12 -13 26 0 17 -4 23 -12
18 -7 -5 -9 -2 -5 9 4 10 -1 18 -14 22 -10 4 -19 11 -19 16 0 5 -8 9 -17 9
-10 0 -26 7 -36 15 -11 7 -27 12 -38 10 -10 -2 -19 1 -19 6 0 6 -7 6 -19 -1
-11 -5 -21 -6 -23 -2 -2 4 -11 6 -20 4z"/>
<path d="M1182 503 c-9 -8 -9 -13 -2 -13 6 0 8 -5 4 -12 -11 -17 -12 -48 -3
-48 9 0 6 -20 -4 -37 -5 -8 -3 -13 3 -13 7 0 7 -7 -1 -22 -9 -17 -9 -23 0 -26
6 -2 8 -9 4 -15 -10 -16 -11 -47 -2 -47 9 0 6 -20 -4 -37 -5 -8 -3 -13 3 -13
7 0 7 -7 -1 -22 -9 -17 -9 -23 0 -26 6 -2 8 -9 4 -15 -10 -16 -11 -47 -2 -47
9 0 6 -20 -5 -39 -5 -8 -4 -16 4 -21 6 -4 11 -10 11 -14 -3 -23 2 -27 29 -22
16 2 32 0 36 -5 3 -5 12 -5 23 1 10 5 21 7 23 4 3 -2 11 2 18 11 9 11 9 15 1
15 -9 0 -9 5 -1 20 8 15 8 20 -1 20 -8 0 -8 4 1 15 10 12 10 15 0 15 -9 0 -9
4 1 17 12 15 12 16 -1 8 -13 -8 -13 -7 -1 8 10 13 10 17 1 17 -10 0 -10 3 0
15 10 12 10 15 0 15 -9 0 -9 4 1 17 12 15 12 16 -1 8 -13 -8 -13 -7 -1 8 10
13 10 17 1 17 -10 0 -10 3 0 15 10 12 10 15 0 15 -9 0 -9 4 1 17 12 15 12 16
-1 8 -13 -8 -13 -7 -1 8 10 13 10 17 1 17 -10 0 -10 3 0 15 10 12 10 15 0 15
-9 0 -9 4 1 17 12 15 12 16 -1 8 -13 -8 -13 -7 -1 8 10 13 10 17 1 17 -10 0
-10 3 0 15 10 12 10 15 0 15 -9 0 -9 4 1 17 12 15 12 16 -1 8 -13 -8 -13 -7
-1 8 9 12 10 17 2 17 -7 0 -10 4 -7 8 2 4 1 14 -5 22 -7 12 -9 12 -9 1 0 -11
-3 -11 -15 -1 -8 7 -15 8 -15 3 0 -6 -15 -8 -38 -3 -26 4 -42 2 -50 -7z"/>
<path d="M3172 502 c-7 -9 -10 -11 -6 -3 5 9 3 12 -4 7 -9 -5 -9 -13 -2 -27 6
-10 8 -19 4 -19 -4 0 0 -8 9 -18 10 -10 14 -22 10 -25 -3 -4 -1 -7 6 -7 7 0
10 -4 7 -9 -4 -5 -2 -11 4 -13 5 -1 11 -14 14 -28 2 -14 5 -27 6 -30 2 -3 2
-8 1 -12 0 -5 4 -8 10 -8 5 0 7 -4 4 -10 -3 -5 -1 -10 5 -10 6 0 8 -4 5 -10
-3 -6 -1 -10 5 -10 7 0 10 -6 7 -14 -3 -8 1 -20 8 -26 8 -7 12 -16 9 -21 -3
-5 0 -9 6 -9 6 0 9 -4 5 -9 -3 -5 -1 -12 5 -16 6 -4 8 -11 5 -16 -4 -5 -1 -9
5 -9 6 0 8 -4 5 -10 -3 -6 -1 -10 5 -10 6 0 8 -4 5 -10 -3 -5 0 -10 7 -10 9 0
9 -3 -2 -10 -11 -7 -11 -10 -2 -10 13 0 39 -57 34 -74 -2 -4 10 -5 25 -1 33 9
40 9 75 2 29 -6 37 0 43 35 3 12 10 25 16 28 6 4 10 9 9 11 -5 11 14 59 22 59
6 0 8 9 5 20 -3 11 1 23 8 28 8 4 13 9 12 12 -1 3 7 25 17 50 10 25 18 47 18
50 0 3 7 13 15 23 10 10 12 17 5 17 -7 0 -12 5 -12 11 0 5 4 8 9 5 9 -6 34 46
34 70 0 7 6 15 14 18 8 4 12 15 9 32 -6 30 -16 45 -16 23 0 -11 -2 -11 -10 1
-9 13 -10 13 -10 0 0 -13 -1 -13 -10 0 -5 8 -10 10 -10 4 0 -6 -10 -9 -24 -7
-17 4 -27 -1 -35 -16 -7 -12 -8 -21 -4 -21 4 0 -1 -7 -12 -16 -17 -12 -18 -16
-5 -24 12 -8 12 -10 -3 -16 -9 -3 -15 -10 -12 -14 3 -5 1 -11 -5 -15 -6 -4 -8
-11 -5 -16 4 -5 1 -9 -5 -9 -6 0 -9 -4 -5 -9 3 -5 -1 -15 -8 -23 -8 -7 -13
-21 -11 -31 1 -9 -2 -15 -7 -11 -8 4 -14 -17 -10 -38 0 -5 -4 -8 -9 -8 -5 0
-10 -7 -10 -15 0 -8 -5 -15 -11 -15 -5 0 -7 -5 -3 -12 4 -7 3 -8 -5 -4 -6 4
-9 11 -6 16 3 5 1 11 -5 15 -6 4 -8 11 -5 16 4 5 -1 12 -10 15 -13 6 -14 8 -3
15 10 7 10 9 1 9 -7 0 -13 11 -13 24 0 13 -4 26 -9 28 -5 2 -11 10 -13 18 -2
8 -10 20 -18 27 -11 9 -12 12 -2 13 9 0 6 10 -10 33 -13 17 -21 32 -20 32 2 0
-1 12 -7 26 -6 16 -19 28 -35 31 -14 3 -26 2 -26 -1 0 -9 -54 -8 -60 1 -3 4
-11 -1 -18 -10z"/>
</g>
</svg>
